# AST/ASF file generated using VICON BodyLanguage
# -----------------------------------------------
:version 1.10
:name VICON
:units
  mass 1.0
  length 0.45
  angle deg
:documentation
   .ast/.asf automatically generated from VICON data using
   VICON BodyBuilder and BodyLanguage model FoxedUp or BRILLIANT.MOD
:root
   order TX TY TZ RX RY RZ
   axis XYZ
   position 0 0 0  
   orientation 0 0 0 
:bonedata
  begin
     id 1 
     name lhipjoint
     direction 0.661853 -0.702389 0.261917 
     length 2.64193 
     axis 0 0 0  XYZ
  end
  begin
     id 2 
     name lfemur
     direction 0.34202 -0.939693 0  
     length 7.01722  
     axis 0 0 20  XYZ
    dof rx ry rz
    limits (-160.0 20.0)
           (-70.0 70.0)
           (-60.0 70.0)
  end
  begin
     id 3 
     name ltibia
     direction 0.34202 -0.939693 0   
     length 8.25008   
     axis 0 0 20   XYZ
    dof rx
    limits (-10.0 170.0)
  end
  begin
     id 4 
     name lfoot
     direction 0.0709916 -0.195048 0.978221   
     length 2.31941   
     axis -90 7.62852e-016 20   XYZ
    dof rx rz
    limits (-45.0 90.0)
           (-70.0 20.0)
  end
  begin
     id 5 
     name ltoes
     direction 1.53586e-011 -4.22017e-011 1   
     length 1.16486   
     axis -90 7.62852e-016 20   XYZ
    dof rx
    limits (-90.0 20.0)
  end
  begin
     id 6 
     name rhipjoint
     direction -0.638185 -0.721362 0.268992   
     length 2.57244  
     axis 0 0 0  XYZ 
  end
  begin
     id 7 
     name rfemur
     direction -0.34202 -0.939693 0   
     length 7.07017   
     axis 0 0 -20   XYZ
    dof rx ry rz
    limits (-160.0 20.0)
           (-70.0 70.0)
           (-70.0 60.0)
  end
  begin
     id 8 
     name rtibia
     direction -0.34202 -0.939693 0   
     length 8.20386   
     axis 0 0 -20   XYZ
    dof rx
    limits (-10.0 170.0)
 end
 begin
     id 9 
     name rfoot
     direction -0.0822429 -0.225961 0.970658   
     length 2.32215  
     axis -90 -7.62852e-016 -20   XYZ
    dof rx rz
    limits (-45.0 90.0)
           (-20.0 70.0)
  end
  begin
     id 10 
     name rtoes
     direction -1.53597e-011 -4.21689e-011 1   
     length 1.16333   
     axis -90 -7.62852e-016 -20   XYZ
    dof rx
    limits (-90.0 20.0)
  end
  begin
     id 11 
     name lowerback
     direction -0.0131557 0.998589 -0.0514484   
     length 2.14993   
     axis 0 0 0   XYZ
    dof rx ry rz
    limits (-20.0 45.0)
           (-30.0 30.0)
           (-30.0 30.0)
  end
  begin
     id 12 
     name upperback
     direction -0.000776481 0.999993 0.00352685   
     length 2.15301   
     axis 0 0 0   XYZ
    dof rx ry rz
    limits (-20.0 45.0)
           (-30.0 30.0)
           (-30.0 30.0)
  end
  begin
     id 13 
     name thorax
     direction 0.00438186 0.999609 0.0276143   
     length 2.15424   
     axis 0 0 0   XYZ
    dof rx ry rz
    limits (-20.0 45.0)
           (-30.0 30.0)
           (-30.0 30.0)
  end
  begin
     id 14 
     name lowerneck
     direction -0.0488006 0.998094 0.0377807   
     length 1.90481   
     axis 0 0 0   XYZ
    dof rx ry rz
    limits (-20.0 45.0)
           (-30.0 30.0)
           (-30.0 30.0)
  end
  begin
     id 15 
     name upperneck
     direction 0.0443769 0.990702 -0.12861   
     length 1.91305   
     axis 0 0 0   XYZ
    dof rx ry rz
    limits (-20.0 45.0)
           (-30.0 30.0)
           (-30.0 30.0)
  end
  begin
     id 16
     name head
     direction 0.0165599 0.998647 -0.0492982  
     length 1.92369  
     axis 0 0 0   XYZ
    dof rx ry rz
    limits (-20.0 45.0)
           (-30.0 30.0)
           (-30.0 30.0)
  end
  begin
     id 17 
     name lclavicle
     direction 0.911936 0.410197 -0.0105506  
     length 3.52622  
     axis 0 0 0   XYZ
    dof ry rz
    limits (-20.0 10.0)
           (0.0 20.0)
  end
  begin
     id 18 
     name lhumerus
     direction 1 -4.48974e-011 -2.48591e-028   
     length 5.47651   
     axis 180 -30 -90   XYZ
    dof rx ry rz
    limits (-60.0 90.0)
           (-90.0 90.0)
           (-90.0 90.0)
  end
  begin
     id 19
     name lradius
     direction 1 -4.48938e-011 -4.40099e-027   
     length 3.09058   
     axis 180 -30 -90   XYZ
    dof rx
    limits (-10.0 170.0)
  end
  begin
     id 20
     name lwrist
     direction 1 -4.49042e-011 -2.99852e-027   
     length 1.54529   
     axis 1.95339e-015 90 90   XYZ
    dof ry
    limits (-180.0 0.0)
 end
  begin
     id 21 
     name lhand
     direction 1 -4.48815e-011 -5.98193e-027   
     length 0.771611   
     axis 3.82337e-015 90 90   XYZ
    dof rx rz
    limits (-90.0 90.0)
           (-45.0 45.0)
  end
  begin
     id 22 
     name lfingers
     direction 1 -4.49034e-011 -1.1993e-026   
     length 0.622093   
     axis 7.64668e-015 90 90   XYZ
    dof rx
    limits (0.0 90.0)
  end
  begin
     id 23
     name lthumb
     direction 0.707107 -6.34867e-011 0.707107   
     length 0.893204   
     axis -90 45 -1.62303e-014   XYZ
    dof rx rz
    limits (-45.0 45.0)
           (-45.0 45.0)
  end
  begin
     id 24 
     name rclavicle
     direction -0.93442 0.355634 -0.0195692   
     length 3.62463  
     axis 0 0 0   XYZ 
    dof ry rz
    limits (-10.0 20.0)
           (-20.0 0.0)
  end
  begin
     id 25 
     name rhumerus
     direction -1 -4.48957e-011 -1.19147e-027  
     length 5.14182   
     axis 180 30 90   XYZ
    dof rx ry rz
    limits (-90.0 60.0)
           (-90.0 90.0)
           (-90.0 90.0)
  end
  begin
     id 26 
     name rradius
     direction -1 -4.48952e-011 -3.81062e-027   
     length 3.35565   
     axis 180 30 90   XYZ
    dof rx
    limits (-10.0 170.0)
  end
  begin
     id 27 
     name rwrist
     direction -1 -4.48973e-011 -2.99621e-027   
     length 1.67782   
     axis 1.95339e-015 -90 -90   XYZ
    dof ry
    limits (-180.0 0.0)
  end
  begin
     id 28
     name rhand
     direction -1 -4.48895e-011 -5.98727e-027   
     length 0.801042   
     axis 3.82337e-015 -90 -90   XYZ
    dof rx rz
    limits (-90.0 90.0)
           (-45.0 45.0)
  end
  begin
     id 29
     name rfingers
     direction -1 -4.49065e-011 -1.19972e-026   
     length 0.645821   
     axis 7.64668e-015 -90 -90   XYZ
    dof rx
    limits (0.0 90.0)
  end
  begin
     id 30
     name rthumb
     direction -0.707107 -6.34957e-011 0.707107   
     length 0.927273   
     axis -90 -45 1.62303e-014   XYZ
    dof rx rz
    limits (-45.0 45.0)
           (-45.0 45.0)
  end
:hierarchy
  begin
    root lhipjoint rhipjoint lowerback
    lhipjoint lfemur
    lfemur ltibia
    ltibia lfoot
    lfoot ltoes
    rhipjoint rfemur
    rfemur rtibia
    rtibia rfoot
    rfoot rtoes
    lowerback upperback
    upperback thorax
    thorax lowerneck lclavicle rclavicle
    lowerneck upperneck
    upperneck head
    lclavicle lhumerus
    lhumerus lradius
    lradius lwrist
    lwrist lhand lthumb
    lhand lfingers
    rclavicle rhumerus
    rhumerus rradius
    rradius rwrist
    rwrist rhand rthumb
    rhand rfingers
  end

#!OML:ASF E:\Style4\Style4.ASF
:FULLY-SPECIFIED
:DEGREES
139
root -0.877377 17.9461 -2.1049 4.48696 -1.41595 0.0683603
lowerback 10.0186 4.16522 4.12186
upperback 6.62753 5.83106 -1.0888
thorax 1.85354 3.08421 -3.88289
lowerneck 2.86875 -6.9967 -6.08915
upperneck 4.74927 -9.63154 6.11283
head 1.66858 -4.84094 2.92314
rclavicle -2.8625e-014 1.82882e-014
rhumerus -11.3831 46.1013 -46.6943
rradius 48.872
rwrist -9.89539
rhand 24.1106 -1.2298
rfingers 7.12502
rthumb 48.3434 -23.2808
lclavicle -2.8625e-014 1.82882e-014
lhumerus -49.047 -12.9056 81.2297
lradius 71.2871
lwrist 19.29
lhand 10.8311 31.4925
lfingers 7.12502
lthumb 35.9142 57.83
rfemur -17.3407 3.21391 22.863
rtibia 27.4918
rfoot -14.5381 -12.2986
rtoes -4.26506
lfemur -18.6448 -2.54323 -15.3818
ltibia 30.7442
lfoot -14.7986 11.0839
ltoes -18.1324
140
root -0.861942 17.9487 -2.12041 4.56852 -1.53116 0.243684
lowerback 10.0585 4.13886 4.20351
upperback 6.65578 5.80321 -1.1165
thorax 1.87103 3.07463 -3.95681
lowerneck 3.0179 -6.98563 -5.96799
upperneck 4.66323 -9.60492 5.8045
head 1.5865 -4.83046 2.80602
rclavicle -3.43897e-014 3.53837e-014
rhumerus -9.2723 46.8923 -44.9564
rradius 49.134
rwrist -8.7454
rhand 24.1245 -1.35578
rfingers 7.12502
rthumb 48.3562 -23.4007
lclavicle -3.43897e-014 3.53837e-014
lhumerus -49.1572 -12.8255 80.2295
lradius 72.179
lwrist 19.2251
lhand 13.0742 31.8509
lfingers 7.12502
lthumb 38.0359 57.6403
rfemur -17.5726 3.25338 22.599
rtibia 27.6075
rfoot -14.4653 -12.2141
rtoes -4.37046
lfemur -18.746 -2.56258 -15.5961
ltibia 30.7065
lfoot -14.6609 11.1355
ltoes -18.662
141
root -0.847377 17.9498 -2.13279 4.62716 -1.66817 0.376295
lowerback 10.0837 4.12038 4.28566
upperback 6.68816 5.78504 -1.10542
thorax 1.89746 3.06922 -3.98999
lowerneck 3.22337 -6.98814 -5.8556
upperneck 4.51055 -9.59677 5.47481
head 1.47399 -4.83004 2.68708
rclavicle -4.69132e-014 2.38542e-014
rhumerus -7.03739 47.6389 -43.1634
rradius 49.3443
rwrist -7.57558
rhand 24.1941 -1.43784
rfingers 7.12502
rthumb 48.4202 -23.4522
lclavicle -4.69132e-014 2.38542e-014
lhumerus -49.2474 -12.7444 79.1259
lradius 73.1607
lwrist 19.1235
lhand 15.4122 32.2597
lfingers 7.12502
lthumb 40.2395 57.413
rfemur -17.7749 3.33858 22.3857
rtibia 27.6736
rfoot -14.3261 -12.2205
rtoes -4.94679
lfemur -18.8206 -2.53262 -15.7693
ltibia 30.7019
lfoot -14.656 11.0717
ltoes -17.967
142
root -0.831969 17.9504 -2.14706 4.64452 -1.8741 0.435718
lowerback 10.1975 4.12164 4.44453
upperback 6.72009 5.80189 -1.05923
thorax 1.88352 3.08204 -4.03901
lowerneck 3.40259 -6.98342 -5.78335
upperneck 4.36902 -9.57868 5.10653
head 1.36978 -4.82461 2.56236
rclavicle 5.12864e-014 -6.75868e-015
rhumerus -4.66041 48.2454 -41.2764
rradius 49.4854
rwrist -6.49497
rhand 24.4189 -1.59304
rfingers 7.12502
rthumb 48.6271 -23.5078
lclavicle 5.12864e-014 -6.75868e-015
lhumerus -49.2539 -12.6706 77.9625
lradius 74.185
lwrist 18.9617
lhand 17.9106 32.7578
lfingers 7.12502
lthumb 42.5839 57.1492
rfemur -17.9167 3.50466 22.2432
rtibia 27.6884
rfoot -14.2086 -12.192
rtoes -4.9929
lfemur -18.8751 -2.45305 -15.8689
ltibia 30.7486
lfoot -14.5937 11.0718
ltoes -18.0461
143
root -0.815551 17.9505 -2.16311 4.68196 -2.09036 0.44347
lowerback 10.3004 4.1434 4.71409
upperback 6.7513 5.85475 -1.02571
thorax 1.89273 3.11766 -4.16354
lowerneck 3.51289 -7.01068 -5.75211
upperneck 4.29919 -9.60519 4.77284
head 1.30826 -4.84038 2.45223
rclavicle -6.42074e-014 1.55052e-014
rhumerus -2.41206 48.5986 -39.5386
rradius 49.6443
rwrist -5.3084
rhand 25.0765 -1.54653
rfingers 7.12502
rthumb 49.2314 -23.1637
lclavicle -6.42074e-014 1.55052e-014
lhumerus -49.1086 -12.6499 76.7032
lradius 75.1471
lwrist 18.8115
lhand 20.3372 33.4522
lfingers 7.12502
lthumb 44.8491 57.011
rfemur -18.0473 3.67458 22.159
rtibia 27.696
rfoot -14.0914 -12.1307
rtoes -4.82519
lfemur -18.9701 -2.37463 -15.9034
ltibia 30.82
lfoot -14.46 11.102
ltoes -18.882
144
root -0.798814 17.951 -2.17918 4.72094 -2.29257 0.445548
lowerback 10.4142 4.17581 5.01745
upperback 6.76246 5.92599 -1.01042
thorax 1.88358 3.16328 -4.32882
lowerneck 3.6579 -7.05654 -5.71283
upperneck 4.20549 -9.65994 4.49883
head 1.23798 -4.86981 2.36232
rclavicle -6.61953e-014 1.35174e-014
rhumerus -0.285892 48.8808 -37.9334
rradius 49.8193
rwrist -4.10304
rhand 26.4229 -1.19235
rfingers 7.12502
rthumb 50.4642 -22.1679
lclavicle -6.61953e-014 1.35174e-014
lhumerus -48.8322 -12.6796 75.327
lradius 76.0326
lwrist 18.7172
lhand 22.6435 34.3084
lfingers 7.12502
lthumb 46.9892 56.9794
rfemur -18.199 3.8237 22.0778
rtibia 27.7345
rfoot -13.9747 -12.0831
rtoes -4.98405
lfemur -19.0702 -2.26355 -15.9359
ltibia 30.8828
lfoot -14.4268 11.0541
ltoes -19.2239
145
root -0.782151 17.952 -2.19509 4.78834 -2.46291 0.518886
lowerback 10.4826 4.16917 5.20226
upperback 6.76547 5.93457 -0.989872
thorax 1.86952 3.17289 -4.41584
lowerneck 3.74503 -7.06062 -5.64791
upperneck 4.16063 -9.65528 4.15762
head 1.18478 -4.86873 2.24429
rclavicle -7.91163e-014 2.38542e-015
rhumerus 1.93301 49.2666 -36.2745
rradius 50.0822
rwrist -2.97096
rhand 27.4843 -1.01244
rfingers 7.12502
rthumb 51.4316 -21.4497
lclavicle -7.91163e-014 2.38542e-015
lhumerus -48.4947 -12.5972 73.8814
lradius 76.8736
lwrist 18.7302
lhand 24.6009 35.263
lfingers 7.12502
lthumb 48.7945 57.0965
rfemur -18.4233 3.91352 21.9213
rtibia 27.8417
rfoot -13.8901 -12.0588
rtoes -5.29301
lfemur -19.1711 -2.1547 -16.0422
ltibia 30.9025
lfoot -14.44 10.9104
ltoes -19.1259
146
root -0.76301 17.9542 -2.2075 4.87913 -2.6007 0.752034
lowerback 10.4679 4.16917 5.23298
upperback 6.77102 5.9358 -0.992928
thorax 1.88744 3.17516 -4.4344
lowerneck 3.78956 -7.08202 -5.58877
upperneck 4.18899 -9.67136 3.75112
head 1.16016 -4.87789 2.10332
rclavicle 9.54166e-015 -1.35174e-014
rhumerus 4.02847 49.5409 -34.7383
rradius 50.3656
rwrist -1.64429
rhand 28.0124 -0.932162
rfingers 7.12502
rthumb 51.9115 -21.0903
lclavicle 9.54166e-015 -1.35174e-014
lhumerus -48.1798 -12.6331 72.3682
lradius 77.8387
lwrist 18.8651
lhand 26.2493 36.4571
lfingers 7.12502
lthumb 50.3056 57.5179
rfemur -18.6558 3.97423 21.5746
rtibia 27.9823
rfoot -13.9426 -11.9784
rtoes -5.26139
lfemur -19.2673 -2.19221 -16.3137
ltibia 30.8862
lfoot -14.3851 10.7843
ltoes -19.0707
